<svg width="148" height="49" viewBox="0 0 148 49" fill="none" xmlns="http://www.w3.org/2000/svg">
<g clip-path="url(#clip0_361_1267)">
<path fill-rule="evenodd" clip-rule="evenodd" d="M48.7119 26.5287C48.7688 25.8599 48.7979 25.1833 48.7979 24.5C48.7979 24.1631 48.7908 23.8278 48.7768 23.4943C46.7998 23.1692 44.769 23 42.6981 23C36.032 23 29.7821 24.7531 24.3989 27.8162C19.0158 24.7531 12.7659 23 6.09974 23C4.02883 23 1.99809 23.1692 0.0210343 23.4943C0.00705728 23.8278 0 24.1631 0 24.5C0 25.1833 0.0290286 25.8599 0.085939 26.5287C2.03703 26.1814 4.04685 26 6.09974 26C11.6432 26 16.8726 27.3225 21.4797 29.6643C20.5582 30.3104 19.6684 30.9974 18.8131 31.7227C14.9431 29.9746 10.6371 29 6.09974 29C4.19747 29 2.33589 29.1713 0.530051 29.4991C0.743658 30.4908 1.01952 31.4599 1.35344 32.4022C2.89517 32.1378 4.48109 32 6.09974 32C9.74186 32 13.2183 32.6978 16.3985 33.9648C15.6423 34.7332 14.9206 35.5347 14.2359 36.3668C11.6912 35.4816 8.95265 35 6.09974 35C4.90363 35 3.72763 35.0847 2.57759 35.2482C3.07894 36.2311 3.64691 37.1755 4.27567 38.0756C4.87694 38.0255 5.48531 38 6.09974 38C8.26567 38 10.3563 38.3173 12.3261 38.9071C11.3077 40.3936 10.3992 41.9589 9.61189 43.5918C10.4286 44.2047 11.2857 44.7681 12.1788 45.2774C17.4735 33.9023 29.1476 26 42.6981 26C44.751 26 46.7608 26.1814 48.7119 26.5287ZM48.2678 29.4991C46.462 29.1713 44.6004 29 42.6981 29C30.3428 29 19.7034 36.2268 14.9104 46.6175C15.8461 47.0064 16.8117 47.3396 17.8028 47.6127C22.1694 38.3916 31.6749 32 42.6981 32C44.3168 32 45.9027 32.1378 47.4444 32.4022C47.7783 31.4599 48.0542 30.4908 48.2678 29.4991ZM46.2203 35.2482C45.0702 35.0847 43.8942 35 42.6981 35C33.1512 35 24.885 40.3935 20.8768 48.2518C21.9648 48.4065 23.0761 48.4906 24.2056 48.4993C27.8971 42.2228 34.7963 38 42.6981 38C43.3126 38 43.9209 38.0255 44.5222 38.0756C45.151 37.1755 45.7189 36.2311 46.2203 35.2482Z" fill="#1C7D51"/>
<path fill-rule="evenodd" clip-rule="evenodd" d="M48.0351 18.5228L37.8446 21.7798C37.6376 20.7844 37.3191 19.8289 36.9027 18.9264L47.0933 15.6695C47.2104 15.9605 47.322 16.2544 47.4278 16.551L47.7766 17.6069C47.8687 17.9098 47.955 18.2151 48.0351 18.5228ZM44.9983 11.6324L36.3317 17.8261C35.8252 16.9518 35.2223 16.1386 34.5371 15.4004L43.2036 9.20676C43.471 9.52454 43.7303 9.84921 43.981 10.1805L44.3187 10.6377C44.5534 10.9633 44.78 11.295 44.9983 11.6324ZM1.02144 17.6064C0.929227 17.9094 0.842934 18.2149 0.762695 18.5229L10.9532 21.7798C11.1603 20.7844 11.4787 19.8289 11.8951 18.9265L1.70456 15.6695C1.58733 15.9607 1.47574 16.2548 1.3699 16.5515L1.02144 17.6064ZM3.79955 11.6324L12.4662 17.8261C12.9726 16.9518 13.5756 16.1386 14.2607 15.4004L5.59419 9.20679C5.32651 9.5249 5.06702 9.84991 4.81602 10.1815L4.47988 10.6366C4.24494 10.9626 4.01807 11.2947 3.79955 11.6324ZM8.85156 6.00269L15.1481 14.5275C15.8986 13.8536 16.7253 13.2605 17.6142 12.7623L11.3175 4.2374C10.974 4.45245 10.6363 4.67573 10.3047 4.90694L9.84286 5.23697C9.50562 5.48395 9.17508 5.73929 8.85156 6.00269ZM15.4217 2.17668L18.7328 12.2006C19.6502 11.791 20.6216 11.4778 21.6336 11.2741L18.3225 1.25022C18.0081 1.32948 17.6962 1.41475 17.3869 1.50589L16.3221 1.8462C16.0192 1.95069 15.719 2.0609 15.4217 2.17668ZM22.874 0.546114V11.0824C23.3747 11.0279 23.8835 11 24.3989 11C24.9144 11 25.4232 11.0279 25.9238 11.0824V0.546112C25.4195 0.515521 24.9111 0.5 24.3989 0.5C23.8868 0.5 23.3783 0.515522 22.874 0.546114ZM30.4754 1.25022L27.1642 11.2741C28.1762 11.4778 29.1476 11.791 30.065 12.2006L33.3762 2.17667C33.0797 2.06121 32.7803 1.95129 32.4783 1.84706L31.4084 1.50514C31.0999 1.41428 30.7889 1.32926 30.4754 1.25022ZM37.4803 4.23738L31.1836 12.7623C32.0725 13.2605 32.8992 13.8535 33.6497 14.5275L39.9463 6.00266C39.6232 5.73961 39.2931 5.48458 38.9563 5.2379L38.4919 4.90603C38.1607 4.67513 37.8234 4.45216 37.4803 4.23738Z" fill="#FFAC33"/>
</g>
<path fill-rule="evenodd" clip-rule="evenodd" d="M144.899 12.5V30.9912H147.75V12.5H144.899ZM67.6075 12.5025L60.9973 30.9912H64.1762L65.6396 26.8468H73.2841L74.7222 30.9912H77.9011L71.291 12.5025H67.6075ZM72.3759 24.241H66.4974L69.4587 15.763L72.3759 24.241ZM94.4147 17.5652V30.9912H97.2656V23.2483C97.2656 22.1894 97.5516 21.3787 98.1234 20.8162C98.7121 20.2371 99.4774 19.9476 100.419 19.9476H101.605V17.3914H100.773C99.8307 17.3914 99.0233 17.59 98.3505 17.9871C97.8405 18.2755 97.4368 18.7065 97.1395 19.2802V17.5652H94.4147ZM108.844 31.289C107.532 31.289 106.33 30.9829 105.236 30.3708C104.16 29.7586 103.302 28.9231 102.663 27.8643C102.024 26.8054 101.704 25.6059 101.704 24.2658C101.704 22.9091 102.024 21.7096 102.663 20.6673C103.302 19.6084 104.16 18.7812 105.236 18.1856C106.313 17.5734 107.516 17.2674 108.844 17.2674C110.19 17.2674 111.392 17.5734 112.452 18.1856C113.529 18.7812 114.378 19.6084 115 20.6673C115.639 21.7096 115.959 22.9091 115.959 24.2658C115.959 25.6225 115.639 26.8302 115 27.8891C114.361 28.9479 113.503 29.7834 112.427 30.3956C111.35 30.9912 110.156 31.289 108.844 31.289ZM108.844 28.6832C109.652 28.6832 110.366 28.493 110.989 28.1124C111.611 27.7319 112.099 27.2107 112.452 26.549C112.822 25.8706 113.007 25.1096 113.007 24.2658C113.007 23.422 112.822 22.6692 112.452 22.0074C112.099 21.3456 111.611 20.8245 110.989 20.444C110.366 20.0634 109.652 19.8732 108.844 19.8732C108.054 19.8732 107.339 20.0634 106.7 20.444C106.077 20.8245 105.581 21.3456 105.211 22.0074C104.858 22.6692 104.681 23.422 104.681 24.2658C104.681 25.1096 104.858 25.8706 105.211 26.549C105.581 27.2107 106.077 27.7319 106.7 28.1124C107.339 28.493 108.054 28.6832 108.844 28.6832ZM118.886 30.2715C119.946 30.9499 121.174 31.289 122.57 31.289C123.579 31.289 124.462 31.1236 125.219 30.7927C125.976 30.4452 126.565 29.9737 126.985 29.3781C127.422 28.7659 127.641 28.0628 127.641 27.2687C127.641 26.3421 127.338 25.548 126.733 24.8862C126.127 24.2079 125.261 23.7115 124.134 23.3972L121.914 22.7519C121.628 22.6692 121.35 22.5699 121.081 22.4541C120.812 22.3218 120.594 22.1563 120.425 21.9578C120.257 21.7427 120.173 21.478 120.173 21.1636C120.173 20.7004 120.358 20.3281 120.728 20.0469C121.098 19.7491 121.594 19.6002 122.217 19.6002C122.94 19.6002 123.587 19.7904 124.159 20.171C124.748 20.5515 125.177 21.0644 125.446 21.7096L127.641 20.6921C127.237 19.6167 126.548 18.7812 125.572 18.1856C124.597 17.5734 123.487 17.2674 122.242 17.2674C121.317 17.2674 120.484 17.4328 119.744 17.7637C119.004 18.0946 118.424 18.5661 118.003 19.1783C117.583 19.7739 117.373 20.477 117.373 21.2877C117.373 22.1811 117.658 22.967 118.23 23.6454C118.819 24.3071 119.702 24.8035 120.879 25.1344L123.024 25.73C123.31 25.7962 123.587 25.8954 123.857 26.0278C124.143 26.1602 124.378 26.3339 124.563 26.549C124.748 26.7475 124.841 27.0122 124.841 27.3431C124.841 27.856 124.63 28.2613 124.21 28.5591C123.789 28.8569 123.243 29.0058 122.57 29.0058C121.779 29.0058 121.056 28.7825 120.4 28.3358C119.761 27.8891 119.256 27.2852 118.886 26.5241L116.691 27.5416C117.112 28.6832 117.844 29.5932 118.886 30.2715ZM136.01 31.289C134.698 31.289 133.496 30.9829 132.402 30.3708C131.326 29.7586 130.468 28.9231 129.829 27.8643C129.19 26.8054 128.87 25.6059 128.87 24.2658C128.87 22.9091 129.19 21.7096 129.829 20.6673C130.468 19.6084 131.326 18.7812 132.402 18.1856C133.479 17.5734 134.681 17.2674 136.01 17.2674C137.356 17.2674 138.558 17.5734 139.618 18.1856C140.694 18.7812 141.544 19.6084 142.166 20.6673C142.805 21.7096 143.125 22.9091 143.125 24.2658C143.125 25.6225 142.805 26.8302 142.166 27.8891C141.527 28.9479 140.669 29.7834 139.593 30.3956C138.516 30.9912 137.322 31.289 136.01 31.289ZM136.01 28.6832C136.817 28.6832 137.532 28.493 138.155 28.1124C138.777 27.7319 139.265 27.2107 139.618 26.549C139.988 25.8706 140.173 25.1096 140.173 24.2658C140.173 23.422 139.988 22.6692 139.618 22.0074C139.265 21.3456 138.777 20.8245 138.155 20.444C137.532 20.0634 136.817 19.8732 136.01 19.8732C135.22 19.8732 134.505 20.0634 133.866 20.444C133.243 20.8245 132.747 21.3456 132.377 22.0074C132.024 22.6692 131.847 23.422 131.847 24.2658C131.847 25.1096 132.024 25.8706 132.377 26.549C132.747 27.2107 133.243 27.7319 133.866 28.1124C134.505 28.493 135.22 28.6832 136.01 28.6832ZM85.1007 31.3381C83.7888 31.3381 82.5862 31.032 81.4929 30.4198C80.4164 29.8077 79.5586 28.9722 78.9195 27.9133C78.2803 26.8545 77.9607 25.655 77.9607 24.3148C77.9607 22.9582 78.2803 21.7587 78.9195 20.7164C79.5586 19.6575 80.4164 18.8303 81.4929 18.2347C82.5694 17.6225 83.772 17.3164 85.1007 17.3164C86.9312 17.3164 88.3103 17.9992 89.2632 19.1124V17.6142H91.9627V30.4198C91.9627 31.5779 91.6768 32.612 91.1049 33.5219C90.5499 34.4485 89.7762 35.1764 88.7838 35.7059C87.7915 36.2353 86.6477 36.5 85.3526 36.5C84.3602 36.5 83.4436 36.3428 82.6026 36.0285C81.7616 35.7141 81.0383 35.2757 80.4328 34.7132C79.8273 34.1672 79.3732 33.5219 79.0704 32.7774L81.6943 31.7103C81.9298 32.339 82.3587 32.8602 82.981 33.2738C83.6202 33.6874 84.4023 33.8942 85.3274 33.8942C86.0506 33.8942 86.6982 33.7536 87.27 33.4723C87.8419 33.2076 88.296 32.8105 88.6324 32.2811C88.9688 31.7682 89.137 31.1478 89.137 30.4198L89.1729 29.5669C88.2256 30.6501 86.8771 31.3381 85.1007 31.3381ZM88.7086 22.0565C89.0683 22.6999 89.2532 23.4293 89.2632 24.2447V24.385C89.2532 25.2009 89.0683 25.9385 88.7086 26.598C88.3553 27.2598 87.8676 27.781 87.2452 28.1615C86.6229 28.542 85.9081 28.7323 85.1007 28.7323C84.3102 28.7323 83.5954 28.542 82.9562 28.1615C82.3339 27.781 81.8377 27.2598 81.4677 26.598C81.1144 25.9197 80.9378 25.1586 80.9378 24.3148C80.9378 23.4711 81.1144 22.7183 81.4677 22.0565C81.8377 21.3947 82.3339 20.8735 82.9562 20.493C83.5954 20.1125 84.3102 19.9222 85.1007 19.9222C85.9081 19.9222 86.6229 20.1125 87.2452 20.493C87.8676 20.8735 88.3553 21.3947 88.7086 22.0565Z" fill="#047857"/>
<defs>
<clipPath id="clip0_361_1267">
<rect y="0.5" width="48.7979" height="48" rx="24" fill="white"/>
</clipPath>
</defs>
</svg>
